<svg xmlns="http://www.w3.org/2000/svg" width="14" height="14" viewBox="0 0 14 14">
  <defs>
    <style>
      .cls-1 {
        fill: #1b1b1b;
        fill-rule: evenodd;
      }
    </style>
  </defs>
  <path id="phone2" class="cls-1" d="M1415.54,11413h-0.15a12.363,12.363,0,0,1-5.56-2,13.159,13.159,0,0,1-3.85-3.8,12.937,12.937,0,0,1-1.97-5.6,1.608,1.608,0,0,1,.41-1.3,2.049,2.049,0,0,1,1.25-.7h2.02a1.865,1.865,0,0,1,1.81,1.6,7.775,7.775,0,0,0,.39,1.6,1.791,1.791,0,0,1-.41,1.9l-0.44.4a8.27,8.27,0,0,0,2.81,2.8l0.43-.4a1.756,1.756,0,0,1,1.94-.4,8.611,8.611,0,0,0,1.59.4,1.781,1.781,0,0,1,1.58,1.8v1.9a2.078,2.078,0,0,1-.53,1.3,2.02,2.02,0,0,1-1.3.5h-0.02Zm-7.86-12.2h-1.85a0.684,0.684,0,0,0-.47.2,0.867,0.867,0,0,0-.14.5,11.286,11.286,0,0,0,1.79,5,11.616,11.616,0,0,0,3.48,3.5,11.388,11.388,0,0,0,5.02,1.8,0.69,0.69,0,0,0,.48-0.2,0.6,0.6,0,0,0,.18-0.4v-1.9h0a0.569,0.569,0,0,0-.53-0.6,6.21,6.21,0,0,1-1.85-.5,0.553,0.553,0,0,0-.64.2l-0.78.7a0.525,0.525,0,0,1-.73.1,9.7,9.7,0,0,1-3.9-3.9,0.557,0.557,0,0,1,.1-0.7l0.77-.8a0.524,0.524,0,0,0,.14-0.6,7.551,7.551,0,0,1-.46-1.9A0.719,0.719,0,0,0,1407.68,11400.8Zm7.26,4.3a0.617,0.617,0,0,1-.6-0.5,2.5,2.5,0,0,0-1.93-2,0.534,0.534,0,0,1-.48-0.7,0.7,0.7,0,0,1,.71-0.5,3.778,3.778,0,0,1,2.91,2.9,0.691,0.691,0,0,1-.49.8h-0.12Zm2.45,0a0.681,0.681,0,0,1-.61-0.6,4.871,4.871,0,0,0-4.32-4.3,0.579,0.579,0,0,1-.54-0.7,0.647,0.647,0,0,1,.67-0.5,6.031,6.031,0,0,1,5.41,5.4,0.693,0.693,0,0,1-.54.7h-0.07Z" transform="translate(-1404 -11399)"/>
</svg>
